<svg id="Capa_1" enable-background="new 0 0 480 480" height="512" viewBox="0 0 480 480" width="512" xmlns="http://www.w3.org/2000/svg"><path d="m0 296c0 19.571 24.922 35.51 74.074 47.375 36.755 8.871 83.449 14.44 133.926 16.1v104.525c0 7.735 8.406 16 32 16s32-8.265 32-16v-104.526c50.477-1.659 97.171-7.228 133.926-16.1 49.152-11.864 74.074-27.803 74.074-47.374 0-24.089-38.512-39.069-76.723-48 .885-.207 1.775-.413 2.649-.624 49.152-11.866 74.074-27.805 74.074-47.376 0-17.272-19.625-31.8-58.332-43.183-33.375-9.813-79.533-16.7-130.246-19.445-6.061-4.285-12.574-7.89-19.422-10.752v-14.62h48v16h16v-16h8c4.418 0 8-3.582 8-8v-32c0-4.418-3.582-8-8-8h-8v-16h-16v16h-48v-8c0-3.03-1.712-5.8-4.422-7.155l-8.844-4.422c-3.398-1.69-7.008-2.911-10.734-3.631v-40.792h-16v40.792c-3.725.72-7.335 1.941-10.732 3.631l-8.846 4.422c-2.71 1.355-4.422 4.125-4.422 7.155v70.62c-6.848 2.862-13.361 6.467-19.422 10.752-50.713 2.749-96.871 9.632-130.246 19.445-38.707 11.383-58.332 25.911-58.332 43.183 0 19.571 24.922 35.51 74.074 47.375.874.211 1.764.417 2.649.624-38.211 8.932-76.723 23.912-76.723 48.001zm256 133.485c-2.51 1.115-8.211 2.515-16 2.515s-13.49-1.4-16-2.515v-15.144c10.552 2.212 21.448 2.212 32 0zm-16 34.515c-7.781 0-13.486-1.4-16-2.513v-15.146c10.552 2.212 21.448 2.212 32 0v15.146c-2.514 1.113-8.219 2.513-16 2.513zm16-66.513c-2.514 1.113-8.219 2.513-16 2.513s-13.486-1.4-16-2.513v-37.62c5.303.086 10.636.13 16 .133s10.697-.042 16-.133zm80-301.487h-32v-16h32zm-48-16v16h-16v-16zm-64-19.056 4.423-2.211c7.288-3.644 15.867-3.644 23.155 0l4.422 2.211v72.543c-2.514 1.113-8.219 2.513-16 2.513s-13.486-1.4-16-2.513zm16 91.056c16.392 0 25.448-3.99 29.452-9.02 22.037 10.367 34.548 28.341 34.548 33.02 0 .687-2.715 5.08-15.618 9.381-12.805 4.268-29.982 6.619-48.382 6.619s-35.577-2.351-48.382-6.619c-12.903-4.301-15.618-8.694-15.618-9.381 0-4.679 12.511-22.653 34.548-33.02 4.004 5.03 13.06 9.02 29.452 9.02zm-209.8 62.85c-9.025-5.15-14.2-10.562-14.2-14.85 0-6.484 12.269-17.665 46.845-27.832 27.915-8.209 65.314-14.305 107-17.534-6.218 7.693-9.845 15.343-9.845 21.366 0 21.986 41.47 32 80 32s80-10.014 80-32c0-6.023-3.627-13.673-9.845-21.366 41.686 3.229 79.085 9.325 107 17.534 34.576 10.167 46.845 21.348 46.845 27.832 0 4.288-5.175 9.7-14.2 14.85-10.876 6.206-27.346 12.075-47.632 16.971-43.219 10.433-100.813 16.179-162.168 16.179s-118.949-5.746-162.171-16.179c-20.286-4.896-36.756-10.765-47.629-16.971zm233.8 66.577c11.354 1.4 21.437 3.784 28.974 6.892 9.109 3.757 11.026 7.165 11.026 7.681 0 .687-2.715 5.08-15.618 9.381-7.938 2.526-16.104 4.268-24.382 5.2zm-16 30.417c-2.635.1-5.3.156-8 .156s-5.365-.057-8-.156v-47.88c2.66.021 5.327.033 8 .036s5.34-.009 8-.036zm-32-1.262c-8.278-.932-16.444-2.674-24.382-5.2-12.903-4.302-15.618-8.695-15.618-9.382 0-.516 1.917-3.924 11.026-7.681 7.537-3.108 17.62-5.491 28.974-6.892zm-173.962-35.165c18.809-7.862 45.9-14.536 78.384-19.324 31.684 4.397 63.598 6.939 95.578 7.613v1.614c-28.294 3.2-56 12.649-56 30.68 0 21.986 41.47 32 80 32s80-10.014 80-32c0-18.031-27.706-27.476-56-30.68v-1.614c31.98-.674 63.894-3.216 95.578-7.613 32.484 4.788 59.575 11.462 78.384 19.324 16.304 6.814 26.038 14.509 26.038 20.583 0 4.288-5.175 9.7-14.2 14.85-10.876 6.207-27.346 12.075-47.632 16.971-43.219 10.433-100.813 16.179-162.168 16.179s-118.949-5.746-162.171-16.179c-20.286-4.9-36.756-10.764-47.632-16.971-9.022-5.15-14.197-10.562-14.197-14.85 0-6.074 9.734-13.769 26.038-20.583z"/></svg>