<svg height="512pt" viewBox="-9 0 512 512" width="512pt" xmlns="http://www.w3.org/2000/svg"><path d="m26.007812 59.410156h363.804688c6.160156 17.128906 22.550781 29.414063 41.761719 29.414063 24.46875 0 44.375-19.921875 44.375-44.414063 0-24.488281-19.90625-44.410156-44.375-44.410156-19.210938 0-35.601563 12.28125-41.761719 29.410156h-363.804688c-8.28125 0-15 6.71875-15 15 0 8.285156 6.71875 15 15 15zm405.566407-29.410156c7.929687 0 14.375 6.464844 14.375 14.410156 0 7.949219-6.445313 14.414063-14.375 14.414063-7.925781 0-14.375-6.464844-14.375-14.414063 0-7.945312 6.449219-14.410156 14.375-14.410156zm0 0"/><path d="m494.703125 175.039062c0-19.363281-13.597656-46.90625-78.378906-68.160156-45.355469-14.878906-105.363281-23.074218-168.972657-23.074218-63.609374 0-123.621093 8.195312-168.972656 23.074218-64.78125 21.253906-78.378906 48.796875-78.378906 68.160156 0 .738282.0234375 1.492188.0625 2.257813-.0351562.417969-.0625.84375-.0625 1.273437v43.433594c0 10.886719 4.300781 24.363282 19.585938 37.851563v103.085937c-2.160157-.652344-4.453126-.832031-6.726563-.464844l-.246094.039063c-7.269531 1.171875-12.60937475 7.445313-12.60937475 14.808594v43.441406c0 19.359375 13.59765575 46.898437 78.37499975 68.15625 45.355469 14.882813 105.363282 23.078125 168.96875 23.078125 63.609375 0 123.617188-8.195312 168.976563-23.078125 64.777343-21.257813 78.375-48.796875 78.375-68.15625v-43.441406c0-7.363281-5.34375-13.636719-12.609375-14.808594l-.246094-.042969c-2.257812-.363281-4.539062-.1875-6.6875.457032v-103.109376c15.25-13.476562 19.546875-26.9375 19.546875-37.816406v-43.433594c0-.429687-.03125-.855468-.066406-1.273437.042969-.765625.066406-1.519531.066406-2.257813zm-30 46.964844c0 9.554688-15.121094 25.671875-57.730469 39.652344-10.269531 3.371094-21.378906 6.367188-33.171875 8.984375v-16.296875c15.210938-3.140625 29.476563-6.863281 42.523438-11.148438 21.144531-6.933593 36.832031-14.542968 48.378906-22.316406zm-217.351563 61.234375c-33.972656 0-66.738281-2.414062-96.449218-6.996093v-16.648438c30.042968 4.378906 62.742187 6.679688 96.449218 6.679688 33.707032 0 66.40625-2.300782 96.445313-6.679688v16.648438c-29.710937 4.582031-62.472656 6.996093-96.445313 6.996093zm96.445313 23.320313v121.453125c-29.765625 4.589843-62.566406 7.019531-96.449219 7.019531-33.882812 0-66.679687-2.429688-96.445312-7.015625v-121.457031c30.042968 4.378906 62.742187 6.679687 96.449218 6.679687 33.707032 0 66.40625-2.300781 96.445313-6.679687zm-313.796875-84.554688v-1.125c11.546875 7.773438 27.234375 15.382813 48.378906 22.316406 13.046875 4.28125 27.3125 8.007813 42.523438 11.148438v16.296875c-11.792969-2.613281-22.90625-5.613281-33.171875-8.984375-42.609375-13.980469-57.730469-30.097656-57.730469-39.652344zm57.730469-86.617187c42.414062-13.917969 99.105469-21.582031 159.621093-21.582031 60.515626 0 117.203126 7.664062 159.621094 21.582031 42.609375 13.976562 57.726563 30.097656 57.726563 39.652343 0 9.554688-15.117188 25.671876-57.726563 39.652344-42.417968 13.917969-99.105468 21.582032-159.621094 21.582032-60.515624 0-117.207031-7.664063-159.621093-21.582032-42.609375-13.980468-57.730469-30.097656-57.730469-39.652344 0-9.554687 15.121094-25.675781 57.730469-39.652343zm-9.351563 154.777343c13.046875 4.28125 27.3125 8.003907 42.523438 11.144532v121.117187c-10.519532-2.332031-20.496094-4.964843-29.804688-7.894531-18.339844-5.765625-31.890625-12.011719-41.515625-18.03125v-117.65625c8.242188 3.90625 17.777344 7.703125 28.796875 11.320312zm-48.375 130.601563v-1.195313c13.207032 8.914063 30.648438 16.835938 52.09375 23.582032 12.011719 3.777344 25.019532 7.09375 38.804688 9.9375v16.3125c-11.789063-2.617188-22.902344-5.613282-33.167969-8.984375-42.613281-13.984375-57.730469-30.101563-57.730469-39.652344zm120.898438 54.238281v-16.675781c30.089844 4.386719 62.816406 6.699219 96.445312 6.699219s66.359375-2.3125 96.449219-6.699219v16.671875c-29.710937 4.582031-62.476563 7-96.449219 7-33.96875 0-66.734375-2.414062-96.445312-6.996094zm313.796875-54.238281c0 9.554687-15.117188 25.667969-57.730469 39.652344-10.265625 3.367187-21.378906 6.367187-33.167969 8.984375v-16.316406c13.785157-2.839844 26.792969-6.160157 38.804688-9.9375 21.441406-6.742188 38.886719-14.664063 52.09375-23.578126zm-19.542969-24.246094c-10.523438 6.550781-24.746094 12.726563-41.550781 18.011719-9.3125 2.929688-19.285157 5.5625-29.808594 7.894531v-121.117187c15.210937-3.140625 29.480469-6.863282 42.527344-11.148438 11.035156-3.621094 20.582031-7.421875 28.832031-11.335937zm0 0"/></svg>